# xmcd CD database file
#
# Track frame offsets:
#	150
#	41944
#	82601
#	114715
#	152886
#	201684
#
# Disc length: 2904 seconds
#
# Revision: 0
# Processed by: cddbd v1.5.2PL0 Copyright (c) Steve Scherf et al.
# Submitted via: CDex 1.51
#
DISCID=4f0b5606
DTITLE=The Quartet - Illuminated
DYEAR=2007
DGENRE=Jazz
TTITLE0=Magonia Heights
TTITLE1=Fallujah
TTITLE2=Waltz For Mel
TTITLE3=Brahms Blues
TTITLE4=Miles Off
TTITLE5=Nervous?
EXTD=YEAR: 2007
EXTT0=
EXTT1=
EXTT2=
EXTT3=
EXTT4=
EXTT5=
PLAYORDER=
